<svg width="380" height="501" viewBox="0 0 380 501" fill="none" xmlns="http://www.w3.org/2000/svg">
<g clip-path="url(#clip0_2530_3)">
<mask id="path-1-inside-1_2530_3" fill="white">
<path fill-rule="evenodd" clip-rule="evenodd" d="M272.184 305.693H88.1347L80.8755 312.959V497.193L84.0259 500.346V464.169H95.4581V350.192H88.6523V309.902H134.147V320.29H230.994V309.902H275.431V350.192H264.924V464.169H275.431V501.209L279.443 497.193V312.959L272.184 305.693ZM243.788 504.459H115.669V489.926H243.788V504.459Z"/>
</mask>
<path fill-rule="evenodd" clip-rule="evenodd" d="M272.184 305.693H88.1347L80.8755 312.959V497.193L84.0259 500.346V464.169H95.4581V350.192H88.6523V309.902H134.147V320.29H230.994V309.902H275.431V350.192H264.924V464.169H275.431V501.209L279.443 497.193V312.959L272.184 305.693ZM243.788 504.459H115.669V489.926H243.788V504.459Z" fill="white"/>
<path d="M88.1347 305.693V301.693H86.4767L85.3049 302.866L88.1347 305.693ZM272.184 305.693L275.014 302.866L273.842 301.693H272.184V305.693ZM80.8755 312.959L78.0456 310.132L76.8755 311.304V312.959H80.8755ZM80.8755 497.193H76.8755V498.848L78.0456 500.02L80.8755 497.193ZM84.0259 500.346L81.1961 503.173L88.0259 510.01V500.346H84.0259ZM84.0259 464.169V460.169H80.0259V464.169H84.0259ZM95.4581 464.169V468.169H99.4581V464.169H95.4581ZM95.4581 350.192H99.4581V346.192H95.4581V350.192ZM88.6523 350.192H84.6523V354.192H88.6523V350.192ZM88.6523 309.902V305.902H84.6523V309.902H88.6523ZM134.147 309.902H138.147V305.902H134.147V309.902ZM134.147 320.29H130.147V324.29H134.147V320.29ZM230.994 320.29V324.29H234.994V320.29H230.994ZM230.994 309.902V305.902H226.994V309.902H230.994ZM275.431 309.902H279.431V305.902H275.431V309.902ZM275.431 350.192V354.192H279.431V350.192H275.431ZM264.924 350.192V346.192H260.924V350.192H264.924ZM264.924 464.169H260.924V468.169H264.924V464.169ZM275.431 464.169H279.431V460.169H275.431V464.169ZM275.431 501.209H271.431V510.872L278.261 504.035L275.431 501.209ZM279.443 497.193L282.273 500.02L283.443 498.848V497.193H279.443ZM279.443 312.959H283.443V311.304L282.273 310.132L279.443 312.959ZM115.669 504.459H111.669V508.459H115.669V504.459ZM243.788 504.459V508.459H247.788V504.459H243.788ZM115.669 489.926V485.926H111.669V489.926H115.669ZM243.788 489.926H247.788V485.926H243.788V489.926ZM88.1347 309.693H272.184V301.693H88.1347V309.693ZM83.7053 315.786L90.9645 308.52L85.3049 302.866L78.0456 310.132L83.7053 315.786ZM84.8755 497.193V312.959H76.8755V497.193H84.8755ZM86.8557 497.519L83.7053 494.366L78.0456 500.02L81.1961 503.173L86.8557 497.519ZM80.0259 464.169V500.346H88.0259V464.169H80.0259ZM95.4581 460.169H84.0259V468.169H95.4581V460.169ZM91.4581 350.192V464.169H99.4581V350.192H91.4581ZM95.4581 346.192H88.6523V354.192H95.4581V346.192ZM92.6523 350.192V309.902H84.6523V350.192H92.6523ZM88.6523 313.902H134.147V305.902H88.6523V313.902ZM130.147 309.902V320.29H138.147V309.902H130.147ZM230.994 316.29H134.147V324.29H230.994V316.29ZM226.994 309.902V320.29H234.994V309.902H226.994ZM275.431 305.902H230.994V313.902H275.431V305.902ZM279.431 350.192V309.902H271.431V350.192H279.431ZM264.924 354.192H275.431V346.192H264.924V354.192ZM268.924 464.169V350.192H260.924V464.169H268.924ZM275.431 460.169H264.924V468.169H275.431V460.169ZM279.431 501.209V464.169H271.431V501.209H279.431ZM276.613 494.366L272.601 498.382L278.261 504.035L282.273 500.02L276.613 494.366ZM275.443 312.959V497.193H283.443V312.959H275.443ZM269.354 308.52L276.613 315.786L282.273 310.132L275.014 302.866L269.354 308.52ZM115.669 508.459H243.788V500.459H115.669V508.459ZM111.669 489.926V504.459H119.669V489.926H111.669ZM243.788 485.926H115.669V493.926H243.788V485.926ZM247.788 504.459V489.926H239.788V504.459H247.788Z" fill="#7700D1" mask="url(#path-1-inside-1_2530_3)"/>
<mask id="path-3-inside-2_2530_3" fill="white">
<path fill-rule="evenodd" clip-rule="evenodd" d="M135.984 387.693H164.551H194.886H223.453L230.994 380.354V323.032C230.994 318.983 227.614 315.693 223.453 315.693C219.292 315.693 215.911 318.983 215.911 323.032V372.888H194.886H164.551H143.526V323.032C143.526 318.983 140.145 315.693 135.984 315.693C131.824 315.693 128.443 318.983 128.443 323.032V380.354L135.984 387.693Z"/>
</mask>
<path fill-rule="evenodd" clip-rule="evenodd" d="M135.984 387.693H164.551H194.886H223.453L230.994 380.354V323.032C230.994 318.983 227.614 315.693 223.453 315.693C219.292 315.693 215.911 318.983 215.911 323.032V372.888H194.886H164.551H143.526V323.032C143.526 318.983 140.145 315.693 135.984 315.693C131.824 315.693 128.443 318.983 128.443 323.032V380.354L135.984 387.693Z" fill="white"/>
<path d="M135.984 387.693L133.195 390.559L134.359 391.693H135.984V387.693ZM223.453 387.693V391.693H225.078L226.242 390.559L223.453 387.693ZM230.994 380.354L233.784 383.22L234.994 382.042V380.354H230.994ZM215.911 372.888V376.888H219.911V372.888H215.911ZM143.526 372.888H139.526V376.888H143.526V372.888ZM128.443 380.354H124.443V382.042L125.653 383.22L128.443 380.354ZM164.551 383.693H135.984V391.693H164.551V383.693ZM164.551 391.693H194.886V383.693H164.551V391.693ZM194.886 391.693H223.453V383.693H194.886V391.693ZM226.242 390.559L233.784 383.22L228.204 377.487L220.663 384.826L226.242 390.559ZM234.994 380.354V323.032H226.994V380.354H234.994ZM234.994 323.032C234.994 316.672 229.719 311.693 223.453 311.693V319.693C225.508 319.693 226.994 321.294 226.994 323.032H234.994ZM223.453 311.693C217.186 311.693 211.911 316.672 211.911 323.032H219.911C219.911 321.294 221.398 319.693 223.453 319.693V311.693ZM211.911 323.032V372.888H219.911V323.032H211.911ZM215.911 368.888H194.886V376.888H215.911V368.888ZM194.886 368.888H164.551V376.888H194.886V368.888ZM143.526 376.888H164.551V368.888H143.526V376.888ZM139.526 323.032V372.888H147.526V323.032H139.526ZM135.984 319.693C138.039 319.693 139.526 321.294 139.526 323.032H147.526C147.526 316.672 142.251 311.693 135.984 311.693V319.693ZM132.443 323.032C132.443 321.294 133.929 319.693 135.984 319.693V311.693C129.718 311.693 124.443 316.672 124.443 323.032H132.443ZM132.443 380.354V323.032H124.443V380.354H132.443ZM138.774 384.826L131.233 377.487L125.653 383.22L133.195 390.559L138.774 384.826Z" fill="#7700D1" mask="url(#path-3-inside-2_2530_3)"/>
<rect x="-1.75432" y="1.75432" width="3.50863" height="10.4914" transform="matrix(-1 0 0 1 223.41 312.693)" fill="white" stroke="white" stroke-width="3.50863"/>
<rect x="-1.78855" y="1.78855" width="3.57709" height="10.4229" transform="matrix(-1 0 0 1 135.957 312.693)" fill="white" stroke="white" stroke-width="3.57709"/>
<path fill-rule="evenodd" clip-rule="evenodd" d="M219.901 316.455H237.431C254.662 316.455 268.631 330.424 268.631 347.655V357.358H275.431V347.655C275.431 326.668 258.418 309.655 237.431 309.655H218.159C216.686 309.655 215.232 309.739 213.803 309.902H219.901V316.455Z" fill="white"/>
<path fill-rule="evenodd" clip-rule="evenodd" d="M268.596 445.237L268.596 462.767C268.596 479.998 254.627 493.967 237.396 493.967L229.656 493.967L229.656 500.767L237.396 500.767C258.383 500.767 275.396 483.754 275.396 462.767L275.396 443.495C275.396 442.053 275.316 440.629 275.159 439.229L275.159 445.237L268.596 445.237Z" fill="white"/>
<path fill-rule="evenodd" clip-rule="evenodd" d="M91.655 445.237L91.655 462.767C91.655 479.998 105.624 493.967 122.855 493.967L130.595 493.967L130.595 500.767L122.855 500.767C101.868 500.767 84.855 483.754 84.855 462.767L84.855 443.495C84.855 442.053 84.9354 440.629 85.0919 439.229L85.0919 445.237L91.655 445.237Z" fill="white"/>
<path fill-rule="evenodd" clip-rule="evenodd" d="M140.385 316.455H122.855C105.624 316.455 91.655 330.424 91.655 347.655V357.358H84.855V347.655C84.855 326.668 101.868 309.655 122.855 309.655H142.127C143.6 309.655 145.054 309.739 146.483 309.902H140.385V316.455Z" fill="white"/>
</g>
<g clip-path="url(#clip1_2530_3)">
<mask id="path-11-inside-3_2530_3" fill="white">
<path fill-rule="evenodd" clip-rule="evenodd" d="M88.4001 305.693H-95.6491L-102.908 312.959V497.193L-99.7579 500.346V464.169H-88.3258V350.192H-95.1315V309.902H-49.6365V320.29H47.2104V309.902H91.6472V350.192H81.1407V464.169H91.6472V501.209L95.6591 497.193V312.959L88.4001 305.693ZM60.0039 504.459H-68.1146V489.926H60.0039V504.459Z"/>
</mask>
<path fill-rule="evenodd" clip-rule="evenodd" d="M88.4001 305.693H-95.6491L-102.908 312.959V497.193L-99.7579 500.346V464.169H-88.3258V350.192H-95.1315V309.902H-49.6365V320.29H47.2104V309.902H91.6472V350.192H81.1407V464.169H91.6472V501.209L95.6591 497.193V312.959L88.4001 305.693ZM60.0039 504.459H-68.1146V489.926H60.0039V504.459Z" fill="white"/>
<path d="M-95.6491 305.693V301.693H-97.3071L-98.479 302.866L-95.6491 305.693ZM88.4001 305.693L91.2299 302.866L90.0581 301.693H88.4001V305.693ZM-102.908 312.959L-105.738 310.132L-106.908 311.304V312.959H-102.908ZM-102.908 497.193H-106.908V498.848L-105.738 500.02L-102.908 497.193ZM-99.7579 500.346L-102.588 503.173L-95.7579 510.01V500.346H-99.7579ZM-99.7579 464.169V460.169H-103.758V464.169H-99.7579ZM-88.3258 464.169V468.169H-84.3258V464.169H-88.3258ZM-88.3258 350.192H-84.3258V346.192H-88.3258V350.192ZM-95.1315 350.192H-99.1315V354.192H-95.1315V350.192ZM-95.1315 309.902V305.902H-99.1315V309.902H-95.1315ZM-49.6365 309.902H-45.6365V305.902H-49.6365V309.902ZM-49.6365 320.29H-53.6365V324.29H-49.6365V320.29ZM47.2104 320.29V324.29H51.2104V320.29H47.2104ZM47.2104 309.902V305.902H43.2104V309.902H47.2104ZM91.6472 309.902H95.6472V305.902H91.6472V309.902ZM91.6472 350.192V354.192H95.6472V350.192H91.6472ZM81.1407 350.192V346.192H77.1407V350.192H81.1407ZM81.1407 464.169H77.1407V468.169H81.1407V464.169ZM91.6472 464.169H95.6472V460.169H91.6472V464.169ZM91.6472 501.209H87.6472V510.872L94.4771 504.035L91.6472 501.209ZM95.6591 497.193L98.489 500.02L99.6591 498.848V497.193H95.6591ZM95.6591 312.959H99.6591V311.304L98.489 310.132L95.6591 312.959ZM-68.1146 504.459H-72.1146V508.459H-68.1146V504.459ZM60.0039 504.459V508.459H64.0039V504.459H60.0039ZM-68.1146 489.926V485.926H-72.1146V489.926H-68.1146ZM60.0039 489.926H64.0039V485.926H60.0039V489.926ZM-95.6491 309.693H88.4001V301.693H-95.6491V309.693ZM-100.078 315.786L-92.8193 308.52L-98.479 302.866L-105.738 310.132L-100.078 315.786ZM-98.9083 497.193V312.959H-106.908V497.193H-98.9083ZM-96.9281 497.519L-100.078 494.366L-105.738 500.02L-102.588 503.173L-96.9281 497.519ZM-103.758 464.169V500.346H-95.7579V464.169H-103.758ZM-88.3258 460.169H-99.7579V468.169H-88.3258V460.169ZM-92.3258 350.192V464.169H-84.3258V350.192H-92.3258ZM-88.3258 346.192H-95.1315V354.192H-88.3258V346.192ZM-91.1315 350.192V309.902H-99.1315V350.192H-91.1315ZM-95.1315 313.902H-49.6365V305.902H-95.1315V313.902ZM-53.6365 309.902V320.29H-45.6365V309.902H-53.6365ZM47.2104 316.29H-49.6365V324.29H47.2104V316.29ZM43.2104 309.902V320.29H51.2104V309.902H43.2104ZM91.6472 305.902H47.2104V313.902H91.6472V305.902ZM95.6472 350.192V309.902H87.6472V350.192H95.6472ZM81.1407 354.192H91.6472V346.192H81.1407V354.192ZM85.1407 464.169V350.192H77.1407V464.169H85.1407ZM91.6472 460.169H81.1407V468.169H91.6472V460.169ZM95.6472 501.209V464.169H87.6472V501.209H95.6472ZM92.8292 494.366L88.8173 498.382L94.4771 504.035L98.489 500.02L92.8292 494.366ZM91.6591 312.959V497.193H99.6591V312.959H91.6591ZM85.5702 308.52L92.8292 315.786L98.489 310.132L91.2299 302.866L85.5702 308.52ZM-68.1146 508.459H60.0039V500.459H-68.1146V508.459ZM-72.1146 489.926V504.459H-64.1146V489.926H-72.1146ZM60.0039 485.926H-68.1146V493.926H60.0039V485.926ZM64.0039 504.459V489.926H56.0039V504.459H64.0039Z" fill="#7700D1" mask="url(#path-11-inside-3_2530_3)"/>
<mask id="path-13-inside-4_2530_3" fill="white">
<path fill-rule="evenodd" clip-rule="evenodd" d="M-47.7994 387.693H-19.2328H11.1022H39.6689L47.2104 380.354V323.032C47.2104 318.983 43.8297 315.693 39.6689 315.693C35.508 315.693 32.1274 318.983 32.1274 323.032V372.888H11.1022H-19.2328H-40.2579V323.032C-40.2579 318.983 -43.6386 315.693 -47.7994 315.693C-51.9603 315.693 -55.3409 318.983 -55.3409 323.032V380.354L-47.7994 387.693Z"/>
</mask>
<path fill-rule="evenodd" clip-rule="evenodd" d="M-47.7994 387.693H-19.2328H11.1022H39.6689L47.2104 380.354V323.032C47.2104 318.983 43.8297 315.693 39.6689 315.693C35.508 315.693 32.1274 318.983 32.1274 323.032V372.888H11.1022H-19.2328H-40.2579V323.032C-40.2579 318.983 -43.6386 315.693 -47.7994 315.693C-51.9603 315.693 -55.3409 318.983 -55.3409 323.032V380.354L-47.7994 387.693Z" fill="white"/>
<path d="M-47.7994 387.693L-50.5892 390.559L-49.4245 391.693H-47.7994V387.693ZM39.6689 387.693V391.693H41.294L42.4586 390.559L39.6689 387.693ZM47.2104 380.354L50.0001 383.22L51.2104 382.042V380.354H47.2104ZM32.1274 372.888V376.888H36.1274V372.888H32.1274ZM-40.2579 372.888H-44.2579V376.888H-40.2579V372.888ZM-55.3409 380.354H-59.3409V382.042L-58.1307 383.22L-55.3409 380.354ZM-19.2328 383.693H-47.7994V391.693H-19.2328V383.693ZM-19.2328 391.693H11.1022V383.693H-19.2328V391.693ZM11.1022 391.693H39.6689V383.693H11.1022V391.693ZM42.4586 390.559L50.0001 383.22L44.4207 377.487L36.8792 384.826L42.4586 390.559ZM51.2104 380.354V323.032H43.2104V380.354H51.2104ZM51.2104 323.032C51.2104 316.672 45.9356 311.693 39.6689 311.693V319.693C41.7238 319.693 43.2104 321.294 43.2104 323.032H51.2104ZM39.6689 311.693C33.4021 311.693 28.1274 316.672 28.1274 323.032H36.1274C36.1274 321.294 37.614 319.693 39.6689 319.693V311.693ZM28.1274 323.032V372.888H36.1274V323.032H28.1274ZM32.1274 368.888H11.1022V376.888H32.1274V368.888ZM11.1022 368.888H-19.2328V376.888H11.1022V368.888ZM-40.2579 376.888H-19.2328V368.888H-40.2579V376.888ZM-44.2579 323.032V372.888H-36.2579V323.032H-44.2579ZM-47.7994 319.693C-45.7445 319.693 -44.2579 321.294 -44.2579 323.032H-36.2579C-36.2579 316.672 -41.5327 311.693 -47.7994 311.693V319.693ZM-51.3409 323.032C-51.3409 321.294 -49.8544 319.693 -47.7994 319.693V311.693C-54.0662 311.693 -59.3409 316.672 -59.3409 323.032H-51.3409ZM-51.3409 380.354V323.032H-59.3409V380.354H-51.3409ZM-45.0097 384.826L-52.5512 377.487L-58.1307 383.22L-50.5892 390.559L-45.0097 384.826Z" fill="#7700D1" mask="url(#path-13-inside-4_2530_3)"/>
<rect x="-1.75432" y="1.75432" width="3.50863" height="10.4914" transform="matrix(-1 0 0 1 39.6259 312.693)" fill="white" stroke="white" stroke-width="3.50863"/>
<path fill-rule="evenodd" clip-rule="evenodd" d="M36.1172 316.455H53.6472C70.8785 316.455 84.8472 330.424 84.8472 347.655V357.358H91.6472V347.655C91.6472 326.668 74.634 309.655 53.6472 309.655H34.3755C32.9022 309.655 31.4485 309.739 30.0189 309.902H36.1172V316.455Z" fill="white"/>
<path fill-rule="evenodd" clip-rule="evenodd" d="M84.8121 445.237L84.8121 462.767C84.8121 479.998 70.8434 493.967 53.6121 493.967L45.8726 493.967L45.8726 500.767L53.6121 500.767C74.5989 500.767 91.6121 483.754 91.6121 462.767L91.6121 443.495C91.6121 442.053 91.5317 440.629 91.3752 439.229L91.3752 445.237L84.8121 445.237Z" fill="white"/>
</g>
<g opacity="0.05" clip-path="url(#clip2_2530_3)">
<path d="M-118.581 186.622H151.311L155.282 190.603V221.572L151.311 225.553H139.013V307.219C139.013 309.438 137.221 311.2 135.043 311.2C132.864 311.2 131.072 309.403 131.072 307.219V271.248H-98.2367V518.57C-98.2367 520.79 -100.029 522.551 -102.207 522.551C-104.386 522.551 -106.178 520.755 -106.178 518.57V225.588H-118.476L-122.447 221.607V190.639L-118.581 186.622ZM131.037 263.285V248.418H-98.2719V263.285H131.037ZM-98.2719 240.42H131.037V225.588H-98.2719V240.42ZM-114.576 217.591H-102.278H135.007H147.306V194.62H-114.611V217.591H-114.576Z" fill="white"/>
<path fill-rule="evenodd" clip-rule="evenodd" d="M252.305 68.9997V99.8477L248.335 103.829H-165.552L-169.522 99.8477V15.8214L-165.552 11.8403H193.902V19.8026H-161.581V95.8666H244.329V68.9997H252.305Z" fill="white"/>
<path d="M-512.65 53.8358H-339.07C-336.857 53.8358 -335.1 55.6326 -335.1 57.8169C-335.1 60.0365 -336.892 61.798 -339.07 61.798H-508.68V122.466H-489.354H225.101H244.427V61.8333H74.8169C72.6032 61.8333 70.8464 60.0365 70.8464 57.8522C70.8464 55.6326 72.6384 53.871 74.8169 53.871H248.397L252.368 57.8522V126.518L248.397 130.499H229.071V306.725C229.071 308.945 227.28 310.706 225.101 310.706C222.922 310.706 221.13 308.909 221.13 306.725V130.499H-485.348V514.589H225.136C227.35 514.589 229.107 516.386 229.107 518.57C229.107 520.754 227.315 522.551 225.136 522.551H-489.319L-493.29 518.57V130.499H-512.615L-516.586 126.518V57.8169L-512.65 53.8358Z" fill="white"/>
<rect x="-517.646" y="41.0474" width="770.013" height="54.81" fill="#7700D1"/>
<rect x="-360.36" y="19.6807" width="554.262" height="53.1196" fill="#7700D1"/>
<rect x="229.399" y="58.389" width="38.9119" height="31.4622" fill="#7700D1"/>
<rect x="229.399" y="43.4022" width="38.9119" height="10.5687" fill="#7700D1"/>
<path fill-rule="evenodd" clip-rule="evenodd" d="M188.015 19.9022V11.8892C188.658 11.8567 189.306 11.8403 189.958 11.8403H214.305C235.292 11.8403 252.305 28.8535 252.305 49.8403V95.8574H244.305V49.8403C244.305 33.2718 230.874 19.8403 214.305 19.8403H189.958C189.305 19.8403 188.657 19.8612 188.015 19.9022Z" fill="white"/>
</g>
<defs>
<clipPath id="clip0_2530_3">
<rect width="190" height="190" fill="white" transform="translate(85.2838 310.004)"/>
</clipPath>
<clipPath id="clip1_2530_3">
<rect width="190" height="190" fill="white" transform="translate(-98.5 310.004)"/>
</clipPath>
<clipPath id="clip2_2530_3">
<rect width="955" height="500" fill="white" transform="matrix(-1 0 0 1 380 0.00012207)"/>
</clipPath>
</defs>
</svg>
