<svg width="447" height="437" viewBox="0 0 447 437" fill="none" xmlns="http://www.w3.org/2000/svg">
<path d="M321.8 416.6H116C111.943 416.6 108.65 419.893 108.65 423.95V438.65C108.65 442.707 111.943 446 116 446C120.057 446 123.35 442.707 123.35 438.65V431.3H321.8C325.856 431.3 329.149 428.008 329.149 423.951C329.149 419.894 325.857 416.6 321.8 416.6Z" fill="white" stroke="#7700D1" stroke-width="10"/>
<path d="M167.45 188.75C167.45 192.806 170.742 196.099 174.799 196.099H204.2C208.257 196.099 211.55 192.806 211.55 188.75V144.65C211.55 140.593 208.257 137.3 204.2 137.3H174.8C170.743 137.3 167.45 140.593 167.45 144.65V188.75H167.45ZM182.15 152H196.85V181.4H182.15V152Z" fill="white" stroke="#7700D1" stroke-width="10"/>
<path fill-rule="evenodd" clip-rule="evenodd" d="M13.0996 93.2002H101.3C105.357 93.2002 108.649 96.4939 108.649 100.551C108.649 104.608 105.356 107.9 101.3 107.9H42.7491V95.8618H8.66987V130.302H20.4493V247.55C20.4493 251.607 17.1564 254.9 13.0996 254.9C9.04274 254.9 5.74988 251.607 5.74988 247.55V100.55C5.74988 96.4931 9.04274 93.2002 13.0996 93.2002Z" fill="white"/>
<path d="M42.7491 107.9H37.7491V112.9H42.7491V107.9ZM42.7491 95.8618H47.7491V90.8618H42.7491V95.8618ZM8.66987 95.8618V90.8618H3.66987V95.8618H8.66987ZM8.66987 130.302H3.66987V135.302H8.66987V130.302ZM20.4493 130.302H25.4493V125.302H20.4493V130.302ZM101.3 88.2002H13.0996V98.2002H101.3V88.2002ZM113.649 100.551C113.649 93.7336 108.12 88.2002 101.3 88.2002V98.2002C102.595 98.2002 103.649 99.2542 103.649 100.551H113.649ZM101.3 112.9C108.118 112.9 113.649 107.369 113.649 100.551H103.649C103.649 101.846 102.595 102.9 101.3 102.9V112.9ZM42.7491 112.9H101.3V102.9H42.7491V112.9ZM37.7491 95.8618V107.9H47.7491V95.8618H37.7491ZM8.66987 100.862H42.7491V90.8618H8.66987V100.862ZM13.6699 130.302V95.8618H3.66987V130.302H13.6699ZM20.4493 125.302H8.66987V135.302H20.4493V125.302ZM25.4493 247.55V130.302H15.4493V247.55H25.4493ZM13.0996 259.9C19.9179 259.9 25.4493 254.368 25.4493 247.55H15.4493C15.4493 248.846 14.395 249.9 13.0996 249.9V259.9ZM0.749878 247.55C0.749878 254.368 6.28132 259.9 13.0996 259.9V249.9C11.8041 249.9 10.7499 248.846 10.7499 247.55H0.749878ZM0.749878 100.55V247.55H10.7499V100.55H0.749878ZM13.0996 88.2002C6.28131 88.2002 0.749878 93.7316 0.749878 100.55H10.7499C10.7499 99.2545 11.8042 98.2002 13.0996 98.2002V88.2002Z" fill="#7700D1"/>
<path fill-rule="evenodd" clip-rule="evenodd" d="M60.2127 102.94V98.1404H48.5796C27.5927 98.1404 10.5796 115.154 10.5796 136.14V137.3H15.3796V136.14C15.3796 117.805 30.2437 102.94 48.5796 102.94H60.2127Z" fill="white"/>
<path d="M358.55 365.15C358.55 369.207 361.843 372.5 365.899 372.5H395.299C399.356 372.5 402.649 369.207 402.649 365.15V321.05C402.649 316.993 399.356 313.7 395.299 313.7H365.899C361.843 313.7 358.55 316.993 358.55 321.05V365.15ZM373.25 328.401H387.95V357.8H373.25V328.401Z" fill="white" stroke="#7700D1" stroke-width="10"/>
<path d="M42.5002 269.6C6.16848 269.6 5.74988 364.195 5.74988 365.15C5.74988 382.9 18.3993 397.74 35.1496 401.158V438.65C35.1496 442.707 38.4425 446 42.4993 446C46.5562 446 49.849 442.707 49.849 438.65V401.158C66.5993 397.74 79.2487 382.9 79.2487 365.15C79.2496 364.195 78.831 269.6 42.5002 269.6ZM42.5002 387.2C30.3434 387.2 20.4502 377.307 20.4502 365.15C20.4502 328.532 30.2848 284.3 42.5002 284.3C54.7155 284.3 64.5502 328.532 64.5502 365.15C64.5502 377.307 54.657 387.2 42.5002 387.2Z" fill="white" stroke="#7700D1" stroke-width="10"/>
<path d="M86.6001 225.5H57.1996C53.1427 225.5 49.8499 228.793 49.8499 232.85V247.55C49.8499 251.607 53.1427 254.9 57.1996 254.9C61.2564 254.9 64.5493 251.607 64.5493 247.55V240.2H79.2496V276.951C79.2496 281.007 82.5424 284.3 86.5993 284.3C90.6561 284.3 93.949 281.007 93.949 276.951V232.851C93.9499 228.793 90.657 225.5 86.6001 225.5Z" fill="white" stroke="#7700D1" stroke-width="10"/>
<path d="M365.899 196.1H395.299C399.356 196.1 402.649 192.807 402.649 188.751V144.65C402.649 140.594 399.356 137.301 395.299 137.301H365.899C361.843 137.301 358.55 140.594 358.55 144.65V188.751C358.55 192.807 361.843 196.1 365.899 196.1ZM373.25 152H387.95V181.4H373.25V152Z" fill="white" stroke="#7700D1" stroke-width="10"/>
<path d="M86.6001 137.3H57.1996C53.1427 137.3 49.8499 140.593 49.8499 144.65V188.75C49.8499 192.806 53.1427 196.099 57.1996 196.099H86.5993C90.6561 196.099 93.949 192.806 93.949 188.75V144.65C93.9499 140.593 90.657 137.3 86.6001 137.3ZM79.2496 181.4H64.5501V152H79.2504V181.4H79.2496Z" fill="white" stroke="#7700D1" stroke-width="10"/>
<path d="M240.95 188.75C240.95 192.806 244.243 196.099 248.3 196.099H277.7C281.756 196.099 285.049 192.806 285.049 188.75V144.65C285.049 140.593 281.756 137.3 277.7 137.3H248.3C244.243 137.3 240.95 140.593 240.95 144.65V188.75ZM255.65 152H270.35V181.4H255.65V152Z" fill="white" stroke="#7700D1" stroke-width="10"/>
<path fill-rule="evenodd" clip-rule="evenodd" d="M351.2 93.2002H439.4C441.215 93.2002 442.877 93.8591 444.159 94.9504H412.472V107.9H351.2C347.143 107.9 343.85 104.607 343.85 100.55C343.85 96.4931 347.143 93.2002 351.2 93.2002ZM432.05 131.725V403.252C429.743 402.429 427.295 401.9 424.701 401.9C423.429 401.9 422.165 402.01 420.923 402.231C415.851 393.095 406.201 387.2 395.301 387.2C384.401 387.2 374.751 393.095 369.679 402.231C368.437 402.01 367.173 401.9 365.901 401.9C353.745 401.9 343.851 411.793 343.851 423.95C343.851 436.107 353.745 446 365.901 446H424.7C436.857 446 446.75 436.107 446.75 423.95V131.725H432.05ZM365.9 431.3H424.7C428.75 431.3 432.05 428 432.05 423.95C432.05 418.489 425.502 414.712 420.717 417.799C418.702 419.092 416.182 419.327 413.969 418.431C411.75 417.534 410.111 415.608 409.574 413.278C408.023 406.582 402.15 401.9 395.3 401.9C388.45 401.9 382.578 406.582 381.026 413.278C380.49 415.608 378.851 417.534 376.631 418.431C374.411 419.327 371.897 419.092 369.883 417.799C368.648 417.004 367.31 416.6 365.9 416.6C361.85 416.6 358.55 419.9 358.55 423.95C358.55 428 361.85 431.3 365.9 431.3Z" fill="white"/>
<path d="M444.159 94.9504V99.9504H457.751L447.4 91.1425L444.159 94.9504ZM412.472 94.9504V89.9504H407.472V94.9504H412.472ZM412.472 107.9V112.9H417.472V107.9H412.472ZM432.05 131.725V126.725H427.05V131.725H432.05ZM432.05 403.252L430.37 407.962L437.05 410.346V403.252H432.05ZM420.923 402.231L416.551 404.658L418.283 407.778L421.797 407.154L420.923 402.231ZM369.679 402.231L368.805 407.154L372.319 407.778L374.051 404.658L369.679 402.231ZM446.75 131.725H451.75V126.725H446.75V131.725ZM432.05 423.95L437.05 423.951V423.95H432.05ZM420.717 417.799L423.419 422.006L423.428 422L420.717 417.799ZM413.969 418.431L415.847 413.797L415.842 413.795L413.969 418.431ZM409.574 413.278L414.447 412.156L414.445 412.15L409.574 413.278ZM381.026 413.278L376.155 412.15L376.154 412.156L381.026 413.278ZM369.883 417.799L367.179 422.004L367.181 422.005L369.883 417.799ZM439.4 88.2002H351.2V98.2002H439.4V88.2002ZM447.4 91.1425C445.248 89.3115 442.448 88.2002 439.4 88.2002V98.2002C439.982 98.2002 440.506 98.4066 440.919 98.7584L447.4 91.1425ZM412.472 99.9504H444.159V89.9504H412.472V99.9504ZM417.472 107.9V94.9504H407.472V107.9H417.472ZM351.2 112.9H412.472V102.9H351.2V112.9ZM338.85 100.55C338.85 107.368 344.382 112.9 351.2 112.9V102.9C349.905 102.9 348.85 101.845 348.85 100.55H338.85ZM351.2 88.2002C344.382 88.2002 338.85 93.7316 338.85 100.55H348.85C348.85 99.2545 349.905 98.2002 351.2 98.2002V88.2002ZM427.05 131.725V403.252H437.05V131.725H427.05ZM433.731 398.543C431.007 397.571 427.985 396.9 424.701 396.9V406.9C426.605 406.9 428.479 407.287 430.37 407.962L433.731 398.543ZM424.701 396.9C423.14 396.9 421.584 397.035 420.049 397.308L421.797 407.154C422.746 406.985 423.718 406.9 424.701 406.9V396.9ZM425.295 399.804C419.354 389.103 408.044 382.2 395.301 382.2V392.2C404.358 392.2 412.349 397.086 416.551 404.658L425.295 399.804ZM395.301 382.2C382.558 382.2 371.248 389.103 365.307 399.804L374.051 404.658C378.254 397.086 386.244 392.2 395.301 392.2V382.2ZM370.553 397.308C369.019 397.035 367.462 396.9 365.901 396.9V406.9C366.884 406.9 367.856 406.985 368.805 407.154L370.553 397.308ZM365.901 396.9C350.983 396.9 338.851 409.032 338.851 423.95H348.851C348.851 414.555 356.506 406.9 365.901 406.9V396.9ZM338.851 423.95C338.851 438.868 350.983 451 365.901 451V441C356.506 441 348.851 433.346 348.851 423.95H338.851ZM365.901 451H424.7V441H365.901V451ZM424.7 451C439.618 451 451.75 438.868 451.75 423.95H441.75C441.75 433.346 434.095 441 424.7 441V451ZM451.75 423.95V131.725H441.75V423.95H451.75ZM446.75 126.725H432.05V136.725H446.75V126.725ZM424.7 426.3H365.9V436.3H424.7V426.3ZM427.05 423.949C427.05 425.239 425.988 426.3 424.7 426.3V436.3C431.511 436.3 437.049 430.762 437.05 423.951L427.05 423.949ZM423.428 422C424.034 421.609 424.868 421.55 425.751 422.04C426.666 422.548 427.05 423.323 427.05 423.95H437.05C437.05 414.641 426.211 408.303 418.006 413.597L423.428 422ZM412.092 423.065C415.812 424.572 420.04 424.175 423.419 422.006L418.015 413.591C417.365 414.009 416.552 414.082 415.847 413.797L412.092 423.065ZM404.702 414.401C405.603 418.316 408.359 421.557 412.097 423.067L415.842 413.795C415.141 413.511 414.618 412.9 414.447 412.156L404.702 414.401ZM395.3 406.9C399.811 406.9 403.674 409.965 404.703 414.407L414.445 412.15C412.371 403.199 404.489 396.9 395.3 396.9V406.9ZM385.897 414.407C386.926 409.965 390.789 406.9 395.3 406.9V396.9C386.111 396.9 378.229 403.199 376.155 412.15L385.897 414.407ZM378.504 423.067C382.242 421.557 384.997 418.316 385.899 414.401L376.154 412.156C375.982 412.9 375.46 413.511 374.758 413.795L378.504 423.067ZM367.181 422.005C370.561 424.177 374.781 424.571 378.504 423.067L374.758 413.795C374.042 414.084 373.233 414.008 372.586 413.592L367.181 422.005ZM365.9 421.6C366.305 421.6 366.711 421.703 367.179 422.004L372.587 413.593C370.585 412.306 368.316 411.6 365.9 411.6V421.6ZM363.55 423.95C363.55 422.662 364.611 421.6 365.9 421.6V411.6C359.088 411.6 353.55 417.139 353.55 423.95H363.55ZM365.9 426.3C364.611 426.3 363.55 425.239 363.55 423.95H353.55C353.55 430.762 359.088 436.3 365.9 436.3V426.3Z" fill="#7700D1"/>
<path d="M248.3 107.901H277.7C281.756 107.901 285.049 104.608 285.049 100.551V56.4508C285.049 52.3939 281.756 49.1011 277.7 49.1011H248.3C244.243 49.1011 240.95 52.3939 240.95 56.4508V100.551C240.95 104.608 244.243 107.901 248.3 107.901ZM255.65 63.8005H270.35V93.2002H255.65V63.8005Z" fill="white" stroke="#7700D1" stroke-width="10"/>
<path d="M240.95 276.95C240.95 281.007 244.243 284.299 248.3 284.299H277.7C281.756 284.299 285.049 281.007 285.049 276.95V232.85C285.049 228.793 281.756 225.5 277.7 225.5H248.3C244.243 225.5 240.95 228.793 240.95 232.85V276.95ZM255.65 240.2H270.35V269.6H255.65V240.2Z" fill="white" stroke="#7700D1" stroke-width="10"/>
<path d="M174.8 107.901H204.2C208.257 107.901 211.55 104.608 211.55 100.551V56.4508C211.55 52.3939 208.257 49.1011 204.2 49.1011H174.8C170.743 49.1011 167.451 52.3939 167.451 56.4508V100.551C167.45 104.608 170.743 107.901 174.8 107.901ZM182.15 63.8005H196.85V93.2002H182.15V63.8005Z" fill="white" stroke="#7700D1" stroke-width="10"/>
<path d="M221.031 359.932C219.708 361.328 218.899 363.239 218.899 365.15C218.899 367.062 219.708 368.972 221.031 370.369C222.427 371.692 224.339 372.501 226.25 372.501C228.161 372.501 230.072 371.692 231.469 370.369C232.792 368.973 233.6 367.062 233.6 365.15C233.6 363.239 232.792 361.329 231.469 359.932C228.675 357.212 223.824 357.212 221.031 359.932Z" fill="white" stroke="#7700D1" stroke-width="10"/>
<path d="M167.45 276.95C167.45 281.007 170.742 284.299 174.799 284.299H204.2C208.257 284.299 211.55 281.007 211.55 276.95V232.85C211.55 228.793 208.257 225.5 204.2 225.5H174.8C170.743 225.5 167.45 228.793 167.45 232.85V276.95H167.45ZM182.15 240.2H196.85V269.6H182.15V240.2Z" fill="white" stroke="#7700D1" stroke-width="10"/>
<path d="M152.75 321.05C152.75 325.107 156.043 328.4 160.1 328.4H182.15V394.55C182.15 398.606 185.443 401.899 189.5 401.899C193.557 401.899 196.849 398.606 196.849 394.55V328.4H255.65V394.55C255.65 398.606 258.943 401.899 262.999 401.899C267.056 401.899 270.349 398.606 270.349 394.55V328.4H292.399C296.456 328.4 299.749 325.107 299.749 321.05C299.749 316.993 296.456 313.7 292.399 313.7H160.1C156.043 313.7 152.75 316.993 152.75 321.05Z" fill="white" stroke="#7700D1" stroke-width="10"/>
<path d="M358.55 276.95C358.55 281.007 361.843 284.299 365.899 284.299H395.299C399.356 284.299 402.649 281.007 402.649 276.95V232.85C402.649 228.793 399.356 225.5 395.299 225.5H365.899C361.843 225.5 358.55 228.793 358.55 232.85V276.95ZM373.25 240.2H387.95V269.6H373.25V240.2Z" fill="white" stroke="#7700D1" stroke-width="10"/>
<path fill-rule="evenodd" clip-rule="evenodd" d="M321.8 5H130.7C128.409 5 126.362 6.05008 125.014 7.69482H167.451V19.6994H291.543V7.69482H327.487C326.139 6.05008 324.091 5 321.8 5ZM138.05 43.3394H123.35V394.549C123.35 398.606 126.643 401.899 130.7 401.899C134.757 401.899 138.05 398.606 138.05 394.549V43.3394ZM314.45 394.549V43.3394H329.149V394.549C329.149 398.606 325.856 401.899 321.8 401.899C317.743 401.899 314.45 398.606 314.45 394.549Z" fill="white"/>
<path d="M125.014 7.69482L121.147 4.52503L114.45 12.6948H125.014V7.69482ZM167.451 7.69482H172.451V2.69482H167.451V7.69482ZM167.451 19.6994H162.451V24.6994H167.451V19.6994ZM291.543 19.6994V24.6994H296.543V19.6994H291.543ZM291.543 7.69482V2.69482H286.543V7.69482H291.543ZM327.487 7.69482V12.6948H338.05L331.354 4.52513L327.487 7.69482ZM138.05 43.3394H143.05V38.3394H138.05V43.3394ZM123.35 43.3394V38.3394H118.35V43.3394H123.35ZM314.45 43.3394V38.3394H309.45V43.3394H314.45ZM329.149 43.3394H334.149V38.3394H329.149V43.3394ZM130.7 10H321.8V0H130.7V10ZM128.881 10.8646C129.321 10.3273 129.972 10 130.7 10V0C126.846 0 123.403 1.77288 121.147 4.52503L128.881 10.8646ZM125.014 12.6948H167.451V2.69482H125.014V12.6948ZM162.451 7.69482V19.6994H172.451V7.69482H162.451ZM291.543 14.6994H167.451V24.6994H291.543V14.6994ZM286.543 7.69482V19.6994H296.543V7.69482H286.543ZM327.487 2.69482H291.543V12.6948H327.487V2.69482ZM321.8 10C322.528 10 323.18 10.3276 323.62 10.8645L331.354 4.52513C329.097 1.7726 325.654 0 321.8 0V10ZM138.05 38.3394H123.35V48.3394H138.05V38.3394ZM128.35 394.549V43.3394H118.35V394.549H128.35ZM130.7 396.899C129.405 396.899 128.35 395.845 128.35 394.549H118.35C118.35 401.368 123.882 406.899 130.7 406.899V396.899ZM133.05 394.549C133.05 395.845 131.996 396.899 130.7 396.899V406.899C137.518 406.899 143.05 401.368 143.05 394.549H133.05ZM133.05 43.3394V394.549H143.05V43.3394H133.05ZM309.45 43.3394V394.549H319.45V43.3394H309.45ZM329.149 38.3394H314.45V48.3394H329.149V38.3394ZM334.149 394.549V43.3394H324.149V394.549H334.149ZM321.8 406.899C328.618 406.899 334.149 401.368 334.149 394.549H324.149C324.149 395.845 323.095 396.899 321.8 396.899V406.899ZM309.45 394.549C309.45 401.368 314.981 406.899 321.8 406.899V396.899C320.504 396.899 319.45 395.845 319.45 394.549H309.45Z" fill="#7700D1"/>
<path fill-rule="evenodd" clip-rule="evenodd" d="M392.306 102.94V98.1404H403.939C424.926 98.1404 441.939 115.154 441.939 136.14V137.3H437.139V136.14C437.139 117.805 422.275 102.94 403.939 102.94H392.306Z" fill="white"/>
<path fill-rule="evenodd" clip-rule="evenodd" d="M274.656 14.7417V9.94165H286.289C307.276 9.94165 324.289 26.9548 324.289 47.9417V49.1011H319.489V47.9417C319.489 29.6058 304.625 14.7417 286.289 14.7417H274.656Z" fill="white"/>
<path fill-rule="evenodd" clip-rule="evenodd" d="M177.574 14.7417V9.94165H165.941C144.954 9.94165 127.941 26.9548 127.941 47.9417V49.1011H132.741V47.9417C132.741 29.6058 147.605 14.7417 165.941 14.7417H177.574Z" fill="white"/>
</svg>
